<?xml version="1.0" encoding="UTF-8" standalone="no"?>
<!DOCTYPE svg PUBLIC "-//W3C//DTD SVG 1.1//EN" "http://www.w3.org/Graphics/SVG/1.1/DTD/svg11.dtd">
<svg width="100%" height="100%" viewBox="0 0 512 512" version="1.1" xmlns="http://www.w3.org/2000/svg" xmlns:xlink="http://www.w3.org/1999/xlink" xml:space="preserve" style="fill-rule:evenodd;clip-rule:evenodd;stroke-linejoin:round;stroke-miterlimit:1.41421;">
    <path d="M362.667,68.188L362.667,10.667C362.667,4.771 357.896,0 352,0L288,0C283.896,0 280.146,2.354 278.375,6.063L260.896,42.615C260.49,42.615 260.073,42.625 259.677,42.625L256,42.667C126.604,42.667 21.333,147.938 21.333,277.334C21.333,317.417 31.75,357.126 51.448,392.167C53.396,395.625 57.188,397.698 61.104,397.594C65.083,397.469 68.656,395.136 70.375,391.542L94.417,341.271C95.625,338.74 95.792,335.823 94.875,333.177C88.542,314.906 85.333,296.114 85.333,277.333C85.333,192.531 147.239,121.677 229.333,108.625L43.708,496.729C42.125,500.031 42.354,503.917 44.312,507.021C46.26,510.125 49.666,512 53.333,512L117.333,512C121.604,512 125.458,509.458 127.135,505.531L188.364,362.666L288,362.666L288,373.333C288,377.437 290.354,381.166 294.042,382.948C297.75,384.74 302.125,384.219 305.334,381.667L358.667,339C361.198,336.969 362.667,333.906 362.667,330.667C362.667,327.427 361.198,324.365 358.667,322.334L305.334,279.667C302.115,277.094 297.709,276.584 294.042,278.386C290.354,280.167 288,283.896 288,288.001L288,298.668L219.167,298.668L288,145.698L288,245.333C288,248.573 289.469,251.635 292,253.666L345.333,296.333C348.521,298.896 352.927,299.385 356.625,297.614C360.313,295.833 362.667,292.104 362.667,287.999L362.667,144.417C403.073,176.834 426.667,225.219 426.667,277.334C426.667,331.087 401.628,379.041 362.667,410.348L362.667,373.334C362.667,369.23 360.313,365.501 356.625,363.719C352.917,361.938 348.531,362.438 345.333,365L292,407.667C288.469,410.5 287.104,415.261 288.604,419.532C290.104,423.803 294.135,426.667 298.667,426.667L338.44,426.667C313.98,440.225 285.892,448 256,448C233.958,448 212.354,443.76 191.792,435.396C186.417,433.25 180.261,435.74 177.969,441.084L161.156,480.324C160.031,482.949 160,485.918 161.083,488.553C162.166,491.199 164.26,493.303 166.906,494.386C195.333,506.073 225.312,512 256,512C385.396,512 490.667,406.729 490.667,277.333C490.667,189.708 440.646,108.354 362.667,68.188ZM329.073,405.333L341.333,395.531L341.333,405.333L329.073,405.333ZM256,490.667C231.729,490.667 207.937,486.584 185.135,478.521L193.562,458.844C213.718,465.813 234.666,469.334 256,469.334C361.865,469.334 448,383.199 448,277.334C448,211.167 414.24,150.376 357.687,114.709C354.427,112.636 350.26,112.501 346.843,114.386C343.447,116.261 341.333,119.844 341.333,123.73L341.333,265.803L309.333,240.209L309.333,96C309.333,90.969 305.823,86.625 300.906,85.573C296.01,84.51 291,87.042 288.937,91.625L192.937,304.958C191.458,308.26 191.739,312.083 193.708,315.125C195.677,318.167 199.052,320 202.666,320L298.666,320C304.281,320 308.874,315.667 309.301,310.167L334.926,330.667L309.301,351.167C308.874,345.667 304.28,341.334 298.666,341.334L181.333,341.334C177.062,341.334 173.208,343.876 171.531,347.803L110.302,490.668L70.26,490.668L256.791,100.658C258.416,97.262 258.124,93.273 256.041,90.137C253.958,87.002 250.281,85.127 246.624,85.397C144.219,90.635 64,174.938 64,277.333C64,297.062 67.125,316.76 73.313,335.958L60.553,362.635C48.803,335.781 42.668,306.666 42.668,277.333C42.667,159.698 138.365,64 256,64L260,63.958C262.417,63.916 264.896,63.864 267.104,63.979C271.448,64.354 275.364,61.802 277.219,57.927L294.719,21.333L341.334,21.333L341.334,74.791C341.334,78.895 343.688,82.635 347.397,84.416C421.47,119.895 469.335,195.624 469.335,277.333C469.333,394.969 373.635,490.667 256,490.667Z" style="fill:rgb(116,0,0);fill-rule:nonzero;"/>
</svg>
